<?xml version="1.0" encoding="UTF-8"?>
<svg version="1.1" xmlns="http://www.w3.org/2000/svg" width="306" height="130">
<path d="M0 0 C100.98 0 201.96 0 306 0 C306 42.9 306 85.8 306 130 C205.02 130 104.04 130 0 130 C0 87.1 0 44.2 0 0 Z " fill="#FEFDFC" transform="translate(0,0)"/>
<path d="M0 0 C4.62 0 9.24 0 14 0 C14 5.94 14 11.88 14 18 C21.59 18 29.18 18 37 18 C37 12.06 37 6.12 37 0 C41.29 0 45.58 0 50 0 C50 15.84 50 31.68 50 48 C45.71 48 41.42 48 37 48 C37 41.4 37 34.8 37 28 C29.41 28 21.82 28 14 28 C14 34.6 14 41.2 14 48 C9.38 48 4.76 48 0 48 C0 32.16 0 16.32 0 0 Z " fill="#F80808" transform="translate(230,41)"/>
<path d="M0 0 C4.95 0 9.9 0 15 0 C19.59891343 8.98292436 23.80052379 18.08602012 27.86132812 27.32177734 C28.8895862 29.65814216 29.92502952 31.99123726 30.9609375 34.32421875 C31.61761622 35.81231088 32.27388219 37.30058525 32.9296875 38.7890625 C33.23897186 39.48480377 33.54825623 40.18054504 33.86691284 40.89736938 C36 45.7704302 36 45.7704302 36 48 C31.38 48 26.76 48 22 48 C19 42 19 42 19 39 C11.41 39.33 3.82 39.66 -4 40 C-5.32 42.64 -6.64 45.28 -8 48 C-12.29 48 -16.58 48 -21 48 C-18.98724751 41.62767572 -16.6048333 35.63627625 -13.76953125 29.58984375 C-13.37424728 28.73693253 -12.97896332 27.8840213 -12.57170105 27.00526428 C-11.32313294 24.31389195 -10.06794438 21.62567054 -8.8125 18.9375 C-7.95854253 17.09981463 -7.10502275 15.26192581 -6.25195312 13.42382812 C-4.17301761 8.94685245 -2.08814379 4.47268771 0 0 Z " fill="#F70909" transform="translate(139,41)"/>
<path d="M0 0 C3.63 0 7.26 0 11 0 C11 6.27 11 12.54 11 19 C19.25 19 27.5 19 36 19 C36 12.73 36 6.46 36 0 C39.96 0 43.92 0 48 0 C48 15.84 48 31.68 48 48 C44.04 48 40.08 48 36 48 C36 41.4 36 34.8 36 28 C27.75 28 19.5 28 11 28 C11 34.6 11 41.2 11 48 C7.37 48 3.74 48 0 48 C0 32.16 0 16.32 0 0 Z " fill="#F70708" transform="translate(5,41)"/>
<path d="M0 0 C2.97956499 2.63870745 5.22182332 5.44364663 7 9 C7 10.98 7 12.96 7 15 C3.04 15 -0.92 15 -5 15 C-5.37125 13.906875 -5.7425 12.81375 -6.125 11.6875 C-7.40431885 8.73430602 -7.98803457 8.00843019 -10.75 6.0625 C-14.50601988 4.83457042 -17.07126951 4.50890869 -21 5 C-25.45362191 7.31245753 -27.80521925 9.52163235 -30 14 C-30.84555211 20.62349151 -31.01619257 27.4060175 -27 33 C-24.63254428 35.73737067 -23.45870295 36.84709902 -20 38 C-13.64757629 38.41087066 -13.64757629 38.41087066 -8 36 C-6.64933632 33.03287938 -5.85980538 30.16770404 -5 27 C-1.04 27 2.92 27 7 27 C7.61117689 31.88941514 7.17688261 34.26415652 4.1875 38.25 C3.15490179 39.52481261 2.0930553 40.7766291 1 42 C0.54238281 42.53109375 0.08476562 43.0621875 -0.38671875 43.609375 C-6.37238538 48.76893268 -15.46283477 47.67098466 -22.86669922 47.23828125 C-29.3035912 46.5193059 -34.07430291 43.29368386 -38.4375 38.6875 C-44.11021797 31.18279946 -45.19552205 23.29091418 -44 14 C-41.58797736 6.79609239 -36.70806733 1.74377434 -30.23046875 -2.03125 C-20.80456751 -6.31755457 -8.86519119 -5.00571352 0 0 Z " fill="#F70A0A" transform="translate(217,44)"/>
<path d="M0 0 C16.17 0 32.34 0 49 0 C49 3.3 49 6.6 49 10 C43.06 10 37.12 10 31 10 C31 22.54 31 35.08 31 48 C26.71 48 22.42 48 18 48 C18 35.46 18 22.92 18 10 C12.06 10 6.12 10 0 10 C0 6.7 0 3.4 0 0 Z " fill="#F71111" transform="translate(79,41)"/>
<path d="M0 0 C4.29 0 8.58 0 13 0 C13 15.84 13 31.68 13 48 C8.71 48 4.42 48 0 48 C0 32.16 0 16.32 0 0 Z " fill="#F90203" transform="translate(62,41)"/>
<path d="M0 0 C3.63 0 7.26 0 11 0 C11 15.84 11 31.68 11 48 C7.37 48 3.74 48 0 48 C0 32.16 0 16.32 0 0 Z " fill="#F60606" transform="translate(289,41)"/>
<path d="M0 0 C2.60354344 2.60354344 3.71480102 5.60092873 5.125 8.9375 C5.40214844 9.57107422 5.67929688 10.20464844 5.96484375 10.85742188 C7.19579014 13.74074704 8 15.83210205 8 19 C3.05 19 -1.9 19 -7 19 C-6.20643077 14.23858461 -5.35239252 11.01154417 -3.5 6.6875 C-3.0565625 5.63949219 -2.613125 4.59148438 -2.15625 3.51171875 C-1 1 -1 1 0 0 Z " fill="#F7E2E0" transform="translate(146,52)"/>
<path d="M0 0 C7.59 0 15.18 0 23 0 C22.67 0.66 22.34 1.32 22 2 C21.40985107 1.99476318 20.81970215 1.98952637 20.21166992 1.98413086 C17.53695745 1.96333953 14.86226199 1.95033299 12.1875 1.9375 C10.7943457 1.92493164 10.7943457 1.92493164 9.37304688 1.91210938 C8.48037109 1.90888672 7.58769531 1.90566406 6.66796875 1.90234375 C5.84578857 1.89710693 5.0236084 1.89187012 4.17651367 1.88647461 C1.81827404 1.91258476 1.81827404 1.91258476 -1 3 C-0.67 2.01 -0.34 1.02 0 0 Z " fill="#F7E9E5" transform="translate(135,80)"/>
<path d="M0 0 C0.66 0.33 1.32 0.66 2 1 C-1.3 4.3 -4.6 7.6 -8 11 C-8.33 10.34 -8.66 9.68 -9 9 C-8.06725891 7.87105124 -7.12859878 6.74699124 -6.1875 5.625 C-5.66542969 4.99851562 -5.14335937 4.37203125 -4.60546875 3.7265625 C-3 2 -3 2 0 0 Z " fill="#EA2726" transform="translate(185,43)"/>
</svg>
