<?xml version="1.0" encoding="UTF-8"?>
<svg version="1.1" xmlns="http://www.w3.org/2000/svg" width="50" height="50">
<path d="M0 0 C1.0209375 0.5259375 1.0209375 0.5259375 2.0625 1.0625 C5.11633667 2.5401629 7.76616013 1.62189228 11 1 C11 1.99 11 2.98 11 4 C8.6999522 5.1500239 7.36747079 5.13379508 4.8125 5.125 C3.70841797 5.12886719 3.70841797 5.12886719 2.58203125 5.1328125 C0 5 0 5 -3.2734375 4.24609375 C-8.26737074 3.91630571 -11.15021356 5.56439085 -15.4375 7.9375 C-16.16904297 8.32357422 -16.90058594 8.70964844 -17.65429688 9.10742188 C-19.44488672 10.05538121 -21.22371684 11.02549651 -23 12 C-21.85165792 13.37007743 -21.85165792 13.37007743 -18.75 13.1875 C-15.2095325 13.01047663 -13.2109165 12.30172291 -10 11 C-6.22397736 11.19573336 -4.50241331 13.32793397 -2.03125 15.99804688 C-1.09528237 17.03931087 -0.1655407 18.08620573 0.7578125 19.13867188 C3.31833274 21.88260016 4.55246828 22.95462091 8.3515625 23.33984375 C9.22554687 23.22769531 10.09953125 23.11554687 11 23 C11 23.99 11 24.98 11 26 C10.38125 26.061875 9.7625 26.12375 9.125 26.1875 C6.72238859 26.828919 6.72238859 26.828919 5.75 29.5625 C5.5025 30.366875 5.255 31.17125 5 32 C4.01 32 3.02 32 2 32 C1.67 33.32 1.34 34.64 1 36 C0.21625 36.0825 -0.5675 36.165 -1.375 36.25 C-4.14749104 36.72806339 -4.14749104 36.72806339 -5.3125 39.0625 C-5.539375 39.701875 -5.76625 40.34125 -6 41 C-6.99 41 -7.98 41 -9 41 C-9.66 42.32 -10.32 43.64 -11 45 C-18.8327086 44.07850487 -22.55862007 42.91768215 -27.44140625 36.8046875 C-28.96819362 35.03682844 -30.51829481 33.71922723 -32.375 32.3125 C-33.24125 31.549375 -34.1075 30.78625 -35 30 C-35 28.68 -35 27.36 -35 26 C-36.32 26 -37.64 26 -39 26 C-39 25.01 -39 24.02 -39 23 C-30.61950645 20.20088143 -30.61950645 20.20088143 -26.91796875 22.02734375 C-23.49145503 24.96115615 -20.73188124 28.42029355 -18 32 C-17.236875 32.66 -16.47375 33.32 -15.6875 34 C-15.130625 34.66 -14.57375 35.32 -14 36 C-14.25 38.75 -14.25 38.75 -15 41 C-14.34 41 -13.68 41 -13 41 C-12.67 39.35 -12.34 37.7 -12 36 C-10.35 36.66 -8.7 37.32 -7 38 C-7.495 35.525 -7.495 35.525 -8 33 C-6.02 33 -4.04 33 -2 33 C-2 31.68 -2 30.36 -2 29 C-0.35 29 1.3 29 3 29 C0.41823459 23.83646919 -3.40335634 19.46949732 -8 16 C-11.00903791 15.84803246 -11.00903791 15.84803246 -14 17 C-18.77858752 17.51867231 -21.96043414 17.67890015 -26.0625 15 C-26.701875 14.34 -27.34125 13.68 -28 13 C-27.75 11.125 -27.75 11.125 -27 9 C-24.953125 7.8671875 -24.953125 7.8671875 -23 7 C-23.90363281 6.86722656 -24.80726562 6.73445312 -25.73828125 6.59765625 C-26.91777344 6.42105469 -28.09726562 6.24445312 -29.3125 6.0625 C-30.48425781 5.88847656 -31.65601563 5.71445313 -32.86328125 5.53515625 C-36 5 -36 5 -39 4 C-39 3.01 -39 2.02 -39 1 C-37.32164063 1.24169922 -37.32164063 1.24169922 -35.609375 1.48828125 C-30.8161171 2.08479903 -26.0756756 2.18371219 -21.25 2.1875 C-20.41339844 2.19974609 -19.57679687 2.21199219 -18.71484375 2.22460938 C-17.90660156 2.22654297 -17.09835938 2.22847656 -16.265625 2.23046875 C-15.54149414 2.23457764 -14.81736328 2.23868652 -14.07128906 2.24291992 C-8.84669567 1.63018178 -5.64632271 -0.62215198 0 0 Z M-31 24 C-31.33 25.32 -31.66 26.64 -32 28 C-31.01 27.01 -30.02 26.02 -29 25 C-29.66 24.67 -30.32 24.34 -31 24 Z M-27 28 C-27.99 29.485 -27.99 29.485 -29 31 C-28.01 31 -27.02 31 -26 31 C-26 30.01 -26 29.02 -26 28 C-26.33 28 -26.66 28 -27 28 Z M-23 32 C-23.99 33.485 -23.99 33.485 -25 35 C-24.01 35 -23.02 35 -22 35 C-22 34.01 -22 33.02 -22 32 C-22.33 32 -22.66 32 -23 32 Z M-19 36 C-19.99 37.485 -19.99 37.485 -21 39 C-20.01 39 -19.02 39 -18 39 C-18.33 38.01 -18.66 37.02 -19 36 Z " fill="#000000" transform="translate(39,4)"/>
</svg>
